<?xml version="1.0" standalone="no"?>
<!DOCTYPE svg PUBLIC "-//W3C//DTD SVG 20010904//EN"
 "http://www.w3.org/TR/2001/REC-SVG-20010904/DTD/svg10.dtd">
<svg version="1.0" xmlns="http://www.w3.org/2000/svg"
 width="512.000000pt" height="512.000000pt" viewBox="0 0 512.000000 512.000000"
 preserveAspectRatio="xMidYMid meet">
<metadata>
Created by potrace 1.14, written by Peter Selinger 2001-2017
</metadata>
<g transform="translate(0.000000,512.000000) scale(0.100000,-0.100000)"
fill="#000000" stroke="none">
<path d="M0 2560 l0 -2560 2560 0 2560 0 0 2560 0 2560 -2560 0 -2560 0 0
-2560z m2714 1470 c105 -27 177 -69 267 -159 107 -107 149 -196 174 -373 l6
-36 182 -4 c165 -3 187 -5 234 -27 59 -26 133 -99 160 -157 17 -37 18 -95 18
-1014 l0 -975 -23 -42 c-33 -63 -74 -106 -134 -139 l-53 -29 -985 0 -985 0
-42 23 c-66 35 -110 79 -140 140 l-28 57 0 960 c0 1087 -6 1012 82 1106 75 80
117 93 330 97 l182 4 6 36 c28 184 67 266 174 373 42 41 101 90 133 107 122
70 295 90 442 52z"/>
<path d="M2493 3750 c-115 -24 -214 -129 -230 -245 l-6 -45 303 0 303 0 -6 45
c-13 90 -87 189 -171 225 -51 23 -137 31 -193 20z"/>
<path d="M1967 3154 c-10 -11 -8 -282 3 -328 5 -23 23 -54 44 -74 29 -30 43
-36 88 -39 69 -5 112 20 139 82 17 39 19 63 17 202 l-3 158 -141 3 c-77 1
-143 -1 -147 -4z"/>
<path d="M2867 3153 c-4 -3 -7 -76 -7 -162 0 -132 3 -162 20 -198 27 -60 70
-85 138 -80 45 3 59 9 89 39 44 44 52 82 53 254 0 88 -4 134 -12 142 -13 13
-269 18 -281 5z"/>
</g>
</svg>
