<?xml version="1.0" standalone="no"?>
<!DOCTYPE svg PUBLIC "-//W3C//DTD SVG 20010904//EN"
 "http://www.w3.org/TR/2001/REC-SVG-20010904/DTD/svg10.dtd">
<svg version="1.0" xmlns="http://www.w3.org/2000/svg"
 width="512.000000pt" height="512.000000pt" viewBox="0 0 512.000000 512.000000"
 preserveAspectRatio="xMidYMid meet">
<metadata>
Created by potrace 1.14, written by Peter Selinger 2001-2017
</metadata>
<g transform="translate(0.000000,512.000000) scale(0.100000,-0.100000)"
fill="#000000" stroke="none">
<path d="M1453 3740 c-46 -20 -79 -64 -89 -117 -9 -47 30 -121 76 -145 33 -17
90 -18 1120 -18 1041 0 1087 1 1120 19 47 25 84 95 75 144 -11 55 -42 96 -88
117 -41 19 -78 20 -1107 20 -1029 0 -1066 -1 -1107 -20z"/>
<path d="M1419 3287 c-65 -44 -69 -58 -153 -485 l-79 -403 19 -47 c23 -55 72
-92 120 -92 l33 0 3 -392 c3 -373 4 -395 23 -428 12 -21 39 -44 65 -58 l45
-22 632 2 c623 3 632 3 660 24 15 11 38 36 51 54 22 33 22 35 22 427 l0 393
298 -2 297 -3 5 -400 c6 -452 3 -435 85 -475 49 -24 92 -21 143 10 66 41 67
43 70 478 l3 392 32 0 c49 0 102 41 123 95 l17 46 -79 401 c-84 427 -88 442
-153 485 l-34 23 -1107 0 -1107 0 -34 -23z m1141 -1327 l0 -300 -447 2 -448 3
-3 285 c-1 157 0 290 3 297 3 10 100 13 450 13 l445 0 0 -300z"/>
</g>
</svg>
